PathFileType	4	(X/Y/Z)	/Users/itak/Documents/Research/Walk-IL/dataset/trc/00458_00167.trc
DataRate	CameraRate	NumFrames	NumMarkers	Units	OrigDataRate	OrigDataStartFrame	OrigNumFrames
100.000000	100.000000	4	53	mm	100.000000	452	517
Frame#	Time	RPSI			LPSI			L3			STRN			T10			C7			CLAV			RBAK			LBAK			LSHO			LUPA			LAEL			LAOL			LWTS			LWPS			LFRA			LIFD			LHPS			LHTS			RSHO			RUPA			RAEL			RAOL			RWTS			RWPS			RFRA			RIFD			RHTS			RHPS			RBHD			LFHD			RFHD			LBHD			LHIP			RHIP			RASI			LASI			LKNE			LTHI			LANK			LTIP			LTOE			LMT1			LMT5			LHEE			RKNE			RTHI			RANK			RTIP			RTOE			RMT1			RMT5			RHEE			
		X1	Y1	Z1	X2	Y2	Z2	X3	Y3	Z3	X4	Y4	Z4	X5	Y5	Z5	X6	Y6	Z6	X7	Y7	Z7	X8	Y8	Z8	X9	Y9	Z9	X10	Y10	Z10	X11	Y11	Z11	X12	Y12	Z12	X13	Y13	Z13	X14	Y14	Z14	X15	Y15	Z15	X16	Y16	Z16	X17	Y17	Z17	X18	Y18	Z18	X19	Y19	Z19	X20	Y20	Z20	X21	Y21	Z21	X22	Y22	Z22	X23	Y23	Z23	X24	Y24	Z24	X25	Y25	Z25	X26	Y26	Z26	X27	Y27	Z27	X28	Y28	Z28	X29	Y29	Z29	X30	Y30	Z30	X31	Y31	Z31	X32	Y32	Z32	X33	Y33	Z33	X34	Y34	Z34	X35	Y35	Z35	X36	Y36	Z36	X37	Y37	Z37	X38	Y38	Z38	X39	Y39	Z39	X40	Y40	Z40	X41	Y41	Z41	X42	Y42	Z42	X43	Y43	Z43	X44	Y44	Z44	X45	Y45	Z45	X46	Y46	Z46	X47	Y47	Z47	X48	Y48	Z48	X49	Y49	Z49	X50	Y50	Z50	X51	Y51	Z51	X52	Y52	Z52	X53	Y53	Z53	

453	4.52	221.2206115722656	954.0855712890625	157.0556335449219	362.2466430664062	953.60498046875	167.2004852294922	277.8197937011719	1040.306030273438	167.8364715576172	278.9247131347656	1260.989501953125	418.4751586914062	282.0278930664062	1163.621215820312	139.1165008544922	273.9800109863281	1436.185913085938	182.6350250244141	286.0220336914062	1370.449462890625	372.7941589355469	179.0982360839844	1314.107788085938	127.4616775512695	370.8985595703125	1385.143188476562	154.1754913330078	454.8870239257812	1412.812377929688	252.8939819335938	547.021484375	1290.463623046875	238.9552154541016	567.9210815429688	1074.20654296875	241.6170959472656	488.9039611816406	1071.122436523438	174.4414520263672	533.86474609375	853.7073974609375	281.0288391113281	585.2977905273438	854.050537109375	227.6919097900391	579.80126953125	985.0598754882812	244.0279693603516	530.9755859375	690.7359619140625	219.3484344482422	582.07763671875	776.6725463867188	207.029541015625	538.884033203125	763.0812377929688	263.0165405273438	112.4629364013672	1418.380737304688	247.0855865478516	36.05766296386719	1358.476806640625	228.8156433105469	-36.91109466552734	1077.652954101562	250.6413421630859	6.135416030883789	1053.808471679688	204.6770324707031	-6.463157653808594	883.2535400390625	376.9617004394531	-60.95021057128906	864.4851684570312	310.2225036621094	-49.309326171875	1020.236633300781	260.7474060058594	-23.14247512817383	728.6852416992188	394.7303161621094	-23.01486396789551	788.2532958984375	400.2758178710938	-63.08983993530273	780.0808715820312	335.7876281738281	190.2476501464844	1637.272338867188	241.3854064941406	360.5063171386719	1680.236450195312	351.3749389648438	230.4612731933594	1685.8994140625	363.767333984375	365.3062438964844	1629.041259765625	207.1636199951172	470.0974426269531	858.5740966796875	311.1188049316406	73.13530731201172	858.826171875	264.42578125	127.8559951782227	903.2100830078125	374.15087890625	385.6672973632812	898.995849609375	404.7854919433594	428.53564453125	441.2184753417969	300.2359008789062	451.1913757324219	591.8428955078125	332.0706481933594	425.2889709472656	35.39020538330078	208.3513793945312	440.5968933105469	293.1183166503906	286.6576843261719	337.8590087890625	40.66303634643555	436.7453918457031	314.4630737304688	48.88299560546875	359.2326049804688	429.8267211914062	37.7803955078125	362.5404357910156	364.024658203125	42.8235969543457	160.0048675537109	94.63360595703125	466.3427734375	291.1183471679688	52.40739822387695	734.4473876953125	315.1083068847656	86.82245635986328	38.16629409790039	239.2434387207031	82.49613189697266	325.7635498046875	288.7658081054688	148.1034088134766	43.70179748535156	450.9865112304688	178.5696258544922	48.83793258666992	385.8679504394531	68.74212646484375	42.03474426269531	374.334228515625	130.7230987548828	29.36865615844727	172.6490325927734	
454	4.53	221.1868133544922	954.3294677734375	157.1591339111328	362.1416320800781	953.8040161132812	167.4901123046875	277.4773559570312	1040.397827148438	168.2513275146484	278.5677795410156	1260.8486328125	419.16552734375	281.4254760742188	1163.797485351562	139.8683929443359	273.1695251464844	1436.33154296875	183.5331420898438	285.6079711914062	1370.342041015625	373.6051940917969	178.3751983642578	1314.3203125	128.2663726806641	369.9916381835938	1385.403442382812	154.886474609375	454.1930236816406	1413.168334960938	253.3874664306641	546.5398559570312	1291.175903320312	238.5733032226562	567.9595336914062	1074.85546875	240.1545257568359	488.680908203125	1071.839233398438	173.3245697021484	534.0243530273438	854.6936645507812	280.3860168457031	585.1357421875	854.6214599609375	226.7372894287109	579.8782348632812	985.6687622070312	242.6652984619141	530.8825073242188	691.2544555664062	220.6984252929688	581.8191528320312	777.0443115234375	206.9173278808594	539.2943115234375	764.1470947265625	263.4718933105469	111.7928009033203	1418.255615234375	248.1937103271484	35.41052627563477	1358.336303710938	229.9747772216797	-37.46282958984375	1077.492065429688	251.4846954345703	5.405230045318604	1053.759155273438	205.3755035400391	-6.736523151397705	882.8917846679688	377.2485046386719	-61.40184783935547	864.204833984375	310.6791381835938	-49.8842658996582	1020.046691894531	261.4695739746094	-23.34982109069824	728.2525634765625	394.8112487792969	-23.19814300537109	787.8079223632812	400.4550476074219	-63.51542282104492	779.7499389648438	336.0846557617188	189.6449127197266	1637.284912109375	242.2922515869141	359.8761291503906	1680.2646484375	352.373779296875	229.8364410400391	1685.936767578125	364.700927734375	364.730224609375	1629.0439453125	208.1475524902344	469.70654296875	858.5216064453125	311.5271301269531	72.92571258544922	858.8042602539062	264.4638671875	127.4302368164062	903.1051025390625	374.2300720214844	385.2928771972656	898.8908081054688	405.1534423828125	428.3883056640625	441.1800537109375	300.2533569335938	450.9108276367188	591.7968139648438	332.2007751464844	425.2915954589844	35.39078140258789	208.3307189941406	440.5159301757812	293.1344909667969	286.6343994140625	337.8577575683594	40.67847061157227	436.7233276367188	314.455078125	48.87739944458008	359.2165832519531	429.8114624023438	37.79277038574219	362.5130615234375	363.99072265625	42.81867218017578	159.965576171875	94.51095581054688	466.2767944335938	291.0724182128906	52.30939865112305	734.3306884765625	314.8516540527344	86.84088897705078	38.18529510498047	239.2444763183594	82.43524932861328	325.7175903320312	288.7561645507812	148.0912322998047	43.69700241088867	450.9983520507812	178.5954895019531	48.82241058349609	385.8677062988281	68.76224517822266	42.05108642578125	374.3359375	130.7405395507812	29.36586952209473	172.6373138427734	
455	4.54	221.1469268798828	954.5720825195312	157.2303161621094	362.0264892578125	953.9910888671875	167.7429656982422	277.1278381347656	1040.464111328125	168.6279449462891	278.2474670410156	1260.709838867188	419.8130798339844	280.8213500976562	1163.957641601562	140.555908203125	272.3551025390625	1436.480590820312	184.3769836425781	285.2256774902344	1370.22802734375	374.3711853027344	177.6368560791016	1314.512329101562	129.0543975830078	369.0958251953125	1385.660034179688	155.5151977539062	453.5042724609375	1413.5048828125	253.8046264648438	546.0416259765625	1291.862426757812	238.1661071777344	568.107177734375	1075.510131835938	238.9041442871094	488.623779296875	1072.457885742188	172.3412933349609	534.2559204101562	855.7398681640625	280.1984252929688	585.1563110351562	855.2056274414062	226.3424835205078	580.0772705078125	986.2868041992188	241.635498046875	531.1507568359375	691.7550048828125	222.9163665771484	581.8369140625	777.3951416015625	207.5337219238281	539.989990234375	765.3101806640625	264.6545715332031	111.1353454589844	1418.119506835938	249.3012390136719	34.77200698852539	1358.174194335938	231.1705322265625	-37.96366119384766	1077.3056640625	252.3716888427734	4.655125141143799	1053.712646484375	206.1352233886719	-6.959676265716553	882.4756469726562	377.4859924316406	-61.80514144897461	863.9016723632812	311.0822448730469	-50.41696548461914	1019.837463378906	262.2182006835938	-23.56471824645996	727.7506713867188	394.7996826171875	-23.35854911804199	787.2955322265625	400.5646667480469	-63.96316146850586	779.3946533203125	336.32421875	189.0530395507812	1637.285400390625	243.1643218994141	359.2538146972656	1680.304565429688	353.3341674804688	229.2234802246094	1685.987182617188	365.5989990234375	364.1705932617188	1629.028076171875	209.1200103759766	469.3578796386719	858.4762573242188	311.8921813964844	72.74041748046875	858.760498046875	264.4639892578125	127.0160369873047	902.99755859375	374.2914733886719	384.9382019042969	898.7926025390625	405.4725952148438	428.2720947265625	441.150634765625	300.2546691894531	450.6473999023438	591.7493286132812	332.3027648925781	425.2938232421875	35.39080047607422	208.3120727539062	440.4499206542969	293.1608581542969	286.6024780273438	337.8497619628906	40.68891525268555	436.7060546875	314.4476623535156	48.87317276000977	359.2037658691406	429.7975769042969	37.80139541625977	362.4896850585938	363.9629821777344	42.81266021728516	159.9288787841797	94.36505889892578	466.2219543457031	290.9991455078125	52.2355842590332	734.1923217773438	314.557373046875	86.84873962402344	38.20613861083984	239.2520141601562	82.36692810058594	325.6772155761719	288.7119750976562	148.0762176513672	43.6920280456543	451.0071716308594	178.6190948486328	48.81016540527344	385.8643493652344	68.78008270263672	42.0655632019043	374.3366088867188	130.7553100585938	29.35959243774414	172.6253814697266	
456	4.55	221.0884094238281	954.8092041015625	157.2799377441406	361.8912048339844	954.1728515625	167.9713134765625	276.7768249511719	1040.518310546875	168.9690704345703	277.966064453125	1260.577270507812	420.4144592285156	280.2205200195312	1164.10595703125	141.1697082519531	271.5414123535156	1436.630981445312	185.1654968261719	284.8702087402344	1370.11376953125	375.0880737304688	176.8854217529297	1314.681518554688	129.8244171142578	368.2209167480469	1385.9130859375	156.0666351318359	452.8218688964844	1413.824096679688	254.1532135009766	545.532470703125	1292.52001953125	237.7548370361328	568.3543090820312	1076.1669921875	237.8918151855469	488.7249145507812	1072.978149414062	171.5166931152344	534.5576171875	856.830810546875	280.45703125	585.3590698242188	855.8069458007812	226.4957275390625	580.3861083984375	986.912841796875	240.9559326171875	531.7701416015625	692.2581787109375	225.8845520019531	582.1314697265625	777.7483520507812	208.8276214599609	540.9207763671875	766.551025390625	266.4807739257812	110.4883804321289	1417.982055664062	250.4009704589844	34.13785552978516	1358.00341796875	232.389404296875	-38.40765380859375	1077.103515625	253.2883148193359	3.910576105117798	1053.674560546875	206.9474792480469	-7.137262344360352	882.0115966796875	377.6769409179688	-62.1534423828125	863.5792236328125	311.422607421875	-50.89833831787109	1019.615417480469	262.9856872558594	-23.78491973876953	727.1847534179688	394.6894836425781	-23.50587844848633	786.7182006835938	400.6022644042969	-64.41323089599609	779.0159301757812	336.4882202148438	188.4768981933594	1637.2802734375	243.9974365234375	358.641845703125	1680.354125976562	354.2565612792969	228.6232299804688	1686.0576171875	366.4571838378906	363.6359252929688	1628.989379882812	210.0840759277344	469.0518493652344	858.4390869140625	312.2083740234375	72.57452392578125	858.6974487304688	264.4433898925781	126.6085815429688	902.888427734375	374.3489990234375	384.5894775390625	898.6982421875	405.7406311035156	428.1849975585938	441.1307067871094	300.232421875	450.4106140136719	591.7015991210938	332.3763732910156	425.2963256835938	35.38959503173828	208.2958068847656	440.4009399414062	293.1976928710938	286.5567321777344	337.84033203125	40.69639205932617	436.692138671875	314.4417419433594	48.87070465087891	359.1939697265625	429.7875671386719	37.80715179443359	362.4712524414062	363.9468688964844	42.81005477905273	159.8988647460938	94.19566345214844	466.1802062988281	290.9046936035156	52.18109130859375	734.0346069335938	314.2424011230469	86.84484100341797	38.22910690307617	239.2683715820312	82.29294586181641	325.6414794921875	288.6366577148438	148.0579833984375	43.68788146972656	451.0132751464844	178.6391754150391	48.80059051513672	385.8582763671875	68.79603576660156	42.07848739624023	374.3356628417969	130.7669677734375	29.35144424438477	172.6149444580078	
